<?xml version="1.0" encoding="UTF-8"?><svg xmlns="http://www.w3.org/2000/svg" xmlns:xlink="http://www.w3.org/1999/xlink" contentScriptType="text/ecmascript" width="375" zoomAndPan="magnify" contentStyleType="text/css" viewBox="0 0 375 374.999991" height="374.999991" preserveAspectRatio="xMidYMid meet" version="1.0"><defs><clipPath id="clip-0"><path d="M 22 22 L 353 22 L 353 353 L 22 353 Z M 22 22 " clip-rule="nonzero"/></clipPath><clipPath id="clip-1"><path d="M 74.65625 391.070312 L -16.105469 74.578125 L 300.386719 -16.183594 L 391.152344 300.308594 Z M 74.65625 391.070312 " clip-rule="nonzero"/></clipPath><clipPath id="clip-2"><path d="M 74.65625 391.070312 L -16.105469 74.578125 L 300.386719 -16.183594 L 391.152344 300.308594 Z M 74.65625 391.070312 " clip-rule="nonzero"/></clipPath><clipPath id="clip-3"><path d="M 70 70 L 290 70 L 290 305 L 70 305 Z M 70 70 " clip-rule="nonzero"/></clipPath><clipPath id="clip-4"><path d="M 74.65625 391.070312 L -16.105469 74.578125 L 300.386719 -16.183594 L 391.152344 300.308594 Z M 74.65625 391.070312 " clip-rule="nonzero"/></clipPath><clipPath id="clip-5"><path d="M 74.65625 391.070312 L -16.105469 74.578125 L 300.386719 -16.183594 L 391.152344 300.308594 Z M 74.65625 391.070312 " clip-rule="nonzero"/></clipPath><clipPath id="clip-6"><path d="M 119 119 L 256 119 L 256 256 L 119 256 Z M 119 119 " clip-rule="nonzero"/></clipPath><clipPath id="clip-7"><path d="M 74.65625 391.070312 L -16.105469 74.578125 L 300.386719 -16.183594 L 391.152344 300.308594 Z M 74.65625 391.070312 " clip-rule="nonzero"/></clipPath><clipPath id="clip-8"><path d="M 74.65625 391.070312 L -16.105469 74.578125 L 300.386719 -16.183594 L 391.152344 300.308594 Z M 74.65625 391.070312 " clip-rule="nonzero"/></clipPath></defs><g clip-path="url(#clip-0)"><g clip-path="url(#clip-1)"><g clip-path="url(#clip-2)"><path fill="rgb(47.44873%, 0%, 0%)" d="M 142.15625 29.191406 C 145.023438 28.371094 147.914062 27.628906 150.820312 26.964844 C 153.730469 26.300781 156.652344 25.714844 159.59375 25.207031 C 162.53125 24.703125 165.484375 24.277344 168.445312 23.929688 C 171.410156 23.585938 174.378906 23.320312 177.359375 23.136719 C 180.335938 22.953125 183.316406 22.851562 186.296875 22.828125 C 189.28125 22.808594 192.261719 22.867188 195.242188 23.007812 C 198.222656 23.148438 201.195312 23.371094 204.164062 23.671875 C 207.132812 23.972656 210.089844 24.355469 213.035156 24.820312 C 215.980469 25.28125 218.914062 25.824219 221.832031 26.445312 C 224.75 27.070312 227.648438 27.769531 230.527344 28.550781 C 233.40625 29.328125 236.261719 30.1875 239.09375 31.121094 C 241.929688 32.058594 244.734375 33.066406 247.511719 34.15625 C 250.289062 35.242188 253.035156 36.40625 255.75 37.640625 C 258.464844 38.878906 261.144531 40.1875 263.785156 41.570312 C 266.429688 42.953125 269.035156 44.40625 271.597656 45.929688 C 274.160156 47.457031 276.683594 49.046875 279.160156 50.710938 C 281.636719 52.371094 284.070312 54.097656 286.453125 55.890625 C 288.835938 57.683594 291.171875 59.539062 293.453125 61.460938 C 295.734375 63.382812 297.964844 65.363281 300.140625 67.402344 C 302.316406 69.445312 304.433594 71.542969 306.496094 73.699219 C 308.554688 75.855469 310.558594 78.066406 312.5 80.332031 C 314.4375 82.597656 316.316406 84.914062 318.132812 87.28125 C 319.945312 89.648438 321.695312 92.0625 323.378906 94.527344 C 325.0625 96.988281 326.679688 99.496094 328.226562 102.046875 C 329.773438 104.597656 331.25 107.1875 332.65625 109.816406 C 334.0625 112.449219 335.398438 115.113281 336.660156 117.816406 C 337.921875 120.519531 339.109375 123.257812 340.222656 126.023438 C 341.335938 128.792969 342.371094 131.585938 343.332031 134.410156 C 344.292969 137.234375 345.175781 140.085938 345.984375 142.957031 C 346.789062 145.828125 347.515625 148.71875 348.164062 151.632812 C 348.8125 154.542969 349.382812 157.46875 349.871094 160.414062 C 350.363281 163.355469 350.773438 166.308594 351.101562 169.273438 C 351.429688 172.238281 351.679688 175.210938 351.847656 178.1875 C 352.011719 181.167969 352.101562 184.148438 352.105469 187.132812 C 352.109375 190.113281 352.035156 193.09375 351.878906 196.074219 C 351.722656 199.054688 351.484375 202.027344 351.167969 204.992188 C 350.847656 207.957031 350.449219 210.914062 349.972656 213.855469 C 349.492188 216.800781 348.933594 219.730469 348.296875 222.644531 C 347.65625 225.558594 346.941406 228.453125 346.144531 231.328125 C 345.351562 234.203125 344.476562 237.054688 343.527344 239.882812 C 342.574219 242.710938 341.550781 245.511719 340.445312 248.28125 C 339.34375 251.054688 338.167969 253.792969 336.914062 256.5 C 335.664062 259.207031 334.339844 261.878906 332.941406 264.515625 C 331.546875 267.152344 330.078125 269.746094 328.539062 272.304688 C 327 274.859375 325.394531 277.371094 323.722656 279.839844 C 322.046875 282.308594 320.304688 284.730469 318.5 287.105469 C 316.695312 289.480469 314.824219 291.800781 312.890625 294.074219 C 310.957031 296.347656 308.964844 298.566406 306.914062 300.730469 C 304.859375 302.894531 302.75 305 300.582031 307.050781 C 298.414062 309.097656 296.191406 311.089844 293.917969 313.015625 C 291.640625 314.945312 289.3125 316.808594 286.9375 318.613281 C 284.558594 320.414062 282.136719 322.152344 279.664062 323.820312 C 277.191406 325.492188 274.675781 327.09375 272.117188 328.625 C 269.558594 330.160156 266.960938 331.621094 264.324219 333.015625 C 261.683594 334.40625 259.011719 335.726562 256.300781 336.972656 C 253.589844 338.21875 250.847656 339.394531 248.074219 340.492188 C 245.300781 341.589844 242.5 342.609375 239.671875 343.554688 C 236.839844 344.5 233.988281 345.371094 231.113281 346.160156 C 228.234375 346.949219 225.339844 347.660156 222.425781 348.292969 C 219.507812 348.925781 216.578125 349.480469 213.632812 349.953125 C 210.6875 350.429688 207.734375 350.820312 204.765625 351.132812 C 201.800781 351.449219 198.828125 351.679688 195.847656 351.832031 C 192.867188 351.980469 189.886719 352.050781 186.902344 352.042969 C 183.921875 352.03125 180.941406 351.9375 177.960938 351.765625 C 174.984375 351.59375 172.011719 351.339844 169.046875 351.003906 C 166.085938 350.671875 163.132812 350.257812 160.191406 349.761719 C 157.246094 349.265625 154.320312 348.691406 151.410156 348.039062 C 148.5 347.386719 145.609375 346.652344 142.738281 345.839844 C 139.867188 345.03125 137.023438 344.140625 134.199219 343.175781 C 131.378906 342.210938 128.582031 341.167969 125.816406 340.050781 C 123.050781 338.933594 120.320312 337.742188 117.617188 336.472656 C 114.917969 335.207031 112.253906 333.867188 109.625 332.457031 C 106.996094 331.046875 104.410156 329.566406 101.859375 328.011719 C 99.3125 326.460938 96.808594 324.839844 94.351562 323.152344 C 91.890625 321.464844 89.480469 319.710938 87.113281 317.890625 C 84.75 316.074219 82.4375 314.191406 80.175781 312.246094 C 77.914062 310.300781 75.707031 308.296875 73.554688 306.230469 C 71.402344 304.167969 69.304688 302.042969 67.269531 299.867188 C 65.230469 297.6875 63.253906 295.453125 61.335938 293.167969 C 59.421875 290.882812 57.570312 288.546875 55.78125 286.160156 C 53.992188 283.773438 52.265625 281.335938 50.609375 278.855469 C 48.953125 276.375 47.367188 273.851562 45.847656 271.285156 C 44.328125 268.71875 42.878906 266.113281 41.5 263.464844 C 40.121094 260.820312 38.816406 258.140625 37.585938 255.421875 C 36.351562 252.707031 35.195312 249.957031 34.113281 247.179688 C 33.03125 244.398438 32.023438 241.589844 31.09375 238.757812 C 30.164062 235.921875 29.3125 233.066406 28.535156 230.183594 C 27.761719 227.304688 27.066406 224.402344 26.449219 221.484375 C 25.832031 218.566406 25.292969 215.632812 24.835938 212.6875 C 24.378906 209.738281 24 206.78125 23.707031 203.8125 C 23.410156 200.84375 23.191406 197.871094 23.058594 194.890625 C 22.921875 191.910156 22.867188 188.929688 22.894531 185.945312 C 22.921875 182.960938 23.03125 179.980469 23.21875 177.003906 C 23.40625 174.027344 23.679688 171.058594 24.027344 168.097656 C 24.378906 165.132812 24.808594 162.183594 25.320312 159.242188 C 25.832031 156.304688 26.421875 153.382812 27.089844 150.476562 L 54.019531 156.675781 C 53.464844 159.097656 52.976562 161.53125 52.554688 163.976562 C 52.132812 166.425781 51.773438 168.882812 51.484375 171.347656 C 51.195312 173.816406 50.976562 176.289062 50.820312 178.769531 C 50.667969 181.246094 50.578125 183.726562 50.558594 186.210938 C 50.539062 188.695312 50.585938 191.175781 50.703125 193.660156 C 50.816406 196.140625 51 198.617188 51.25 201.085938 C 51.5 203.558594 51.816406 206.019531 52.199219 208.472656 C 52.585938 210.925781 53.035156 213.371094 53.550781 215.796875 C 54.066406 218.226562 54.648438 220.640625 55.296875 223.039062 C 55.945312 225.4375 56.65625 227.816406 57.433594 230.175781 C 58.210938 232.535156 59.050781 234.871094 59.957031 237.183594 C 60.859375 239.496094 61.824219 241.78125 62.855469 244.042969 C 63.882812 246.304688 64.972656 248.535156 66.121094 250.738281 C 67.269531 252.9375 68.480469 255.109375 69.746094 257.242188 C 71.015625 259.378906 72.339844 261.480469 73.71875 263.542969 C 75.101562 265.605469 76.539062 267.632812 78.03125 269.617188 C 79.523438 271.605469 81.066406 273.546875 82.664062 275.449219 C 84.261719 277.351562 85.910156 279.207031 87.609375 281.019531 C 89.304688 282.832031 91.050781 284.597656 92.847656 286.3125 C 94.640625 288.03125 96.480469 289.699219 98.367188 291.316406 C 100.25 292.933594 102.179688 294.5 104.148438 296.011719 C 106.117188 297.523438 108.128906 298.980469 110.175781 300.382812 C 112.226562 301.789062 114.3125 303.132812 116.433594 304.421875 C 118.558594 305.714844 120.714844 306.945312 122.902344 308.117188 C 125.09375 309.289062 127.3125 310.402344 129.5625 311.453125 C 131.8125 312.503906 134.089844 313.496094 136.390625 314.425781 C 138.695312 315.351562 141.023438 316.21875 143.375 317.019531 C 145.722656 317.820312 148.09375 318.558594 150.484375 319.230469 C 152.875 319.902344 155.285156 320.511719 157.707031 321.050781 C 160.132812 321.59375 162.570312 322.070312 165.019531 322.480469 C 167.46875 322.886719 169.925781 323.230469 172.394531 323.507812 C 174.863281 323.78125 177.335938 323.992188 179.816406 324.132812 C 182.296875 324.273438 184.777344 324.347656 187.261719 324.351562 C 189.746094 324.359375 192.226562 324.296875 194.707031 324.167969 C 197.1875 324.039062 199.664062 323.84375 202.132812 323.582031 C 204.601562 323.316406 207.0625 322.988281 209.515625 322.589844 C 211.96875 322.195312 214.40625 321.730469 216.832031 321.203125 C 219.257812 320.671875 221.667969 320.078125 224.0625 319.417969 C 226.457031 318.753906 228.832031 318.03125 231.1875 317.242188 C 233.542969 316.449219 235.875 315.597656 238.183594 314.679688 C 240.488281 313.765625 242.773438 312.785156 245.027344 311.746094 C 247.28125 310.707031 249.507812 309.605469 251.703125 308.441406 C 253.898438 307.28125 256.058594 306.0625 258.1875 304.78125 C 260.316406 303.503906 262.410156 302.167969 264.46875 300.773438 C 266.523438 299.382812 268.539062 297.933594 270.519531 296.429688 C 272.496094 294.929688 274.429688 293.375 276.324219 291.765625 C 278.21875 290.15625 280.066406 288.5 281.867188 286.792969 C 283.671875 285.082031 285.425781 283.328125 287.132812 281.523438 C 288.84375 279.722656 290.5 277.871094 292.105469 275.980469 C 293.714844 274.085938 295.265625 272.148438 296.769531 270.171875 C 298.269531 268.191406 299.71875 266.175781 301.109375 264.117188 C 302.503906 262.0625 303.835938 259.96875 305.117188 257.839844 C 306.394531 255.710938 307.613281 253.546875 308.773438 251.351562 C 309.933594 249.15625 311.035156 246.929688 312.074219 244.675781 C 313.113281 242.417969 314.09375 240.136719 315.007812 237.828125 C 315.921875 235.519531 316.777344 233.1875 317.566406 230.832031 C 318.355469 228.476562 319.078125 226.101562 319.738281 223.707031 C 320.398438 221.3125 320.992188 218.902344 321.519531 216.476562 C 322.050781 214.050781 322.511719 211.609375 322.90625 209.160156 C 323.304688 206.707031 323.632812 204.246094 323.894531 201.777344 C 324.15625 199.304688 324.351562 196.832031 324.480469 194.351562 C 324.609375 191.871094 324.667969 189.386719 324.660156 186.90625 C 324.65625 184.421875 324.578125 181.9375 324.4375 179.460938 C 324.296875 176.980469 324.085938 174.507812 323.808594 172.039062 C 323.53125 169.570312 323.191406 167.109375 322.78125 164.660156 C 322.371094 162.210938 321.894531 159.773438 321.351562 157.351562 C 320.808594 154.929688 320.199219 152.519531 319.527344 150.128906 C 318.851562 147.738281 318.113281 145.371094 317.3125 143.019531 C 316.507812 140.667969 315.644531 138.339844 314.714844 136.039062 C 313.785156 133.734375 312.792969 131.457031 311.742188 129.207031 C 310.6875 126.960938 309.578125 124.738281 308.402344 122.550781 C 307.230469 120.363281 305.996094 118.207031 304.707031 116.085938 C 303.417969 113.960938 302.070312 111.875 300.664062 109.828125 C 299.261719 107.777344 297.804688 105.769531 296.289062 103.800781 C 294.777344 101.832031 293.210938 99.902344 291.59375 98.019531 C 289.976562 96.136719 288.308594 94.296875 286.589844 92.503906 C 284.871094 90.707031 283.105469 88.964844 281.292969 87.265625 C 279.480469 85.566406 277.621094 83.921875 275.71875 82.324219 C 273.816406 80.726562 271.875 79.183594 269.886719 77.691406 C 267.902344 76.199219 265.875 74.765625 263.8125 73.382812 C 261.746094 72.003906 259.648438 70.679688 257.511719 69.414062 C 255.375 68.144531 253.207031 66.9375 251.003906 65.789062 C 248.800781 64.640625 246.570312 63.550781 244.308594 62.523438 C 242.046875 61.496094 239.761719 60.53125 237.445312 59.628906 C 235.132812 58.726562 232.796875 57.886719 230.4375 57.109375 C 228.078125 56.332031 225.699219 55.621094 223.300781 54.976562 C 220.902344 54.328125 218.488281 53.746094 216.058594 53.230469 C 213.628906 52.714844 211.1875 52.265625 208.734375 51.882812 C 206.28125 51.5 203.816406 51.183594 201.347656 50.9375 C 198.875 50.6875 196.398438 50.507812 193.917969 50.390625 C 191.4375 50.277344 188.957031 50.230469 186.472656 50.25 C 183.988281 50.273438 181.507812 50.359375 179.027344 50.515625 C 176.550781 50.671875 174.078125 50.894531 171.609375 51.183594 C 169.144531 51.472656 166.6875 51.828125 164.238281 52.253906 C 161.792969 52.675781 159.359375 53.167969 156.9375 53.722656 C 154.515625 54.277344 152.113281 54.898438 149.726562 55.585938 Z M 142.15625 29.191406 " fill-opacity="1" fill-rule="evenodd"/></g></g></g><g clip-path="url(#clip-3)"><g clip-path="url(#clip-4)"><g clip-path="url(#clip-5)"><path fill="rgb(85.099792%, 85.099792%, 85.099792%)" d="M 289.585938 244.121094 C 288.550781 245.988281 287.464844 247.824219 286.328125 249.632812 C 285.195312 251.441406 284.011719 253.214844 282.777344 254.957031 C 281.542969 256.699219 280.261719 258.40625 278.9375 260.082031 C 277.609375 261.753906 276.238281 263.386719 274.820312 264.984375 C 273.40625 266.582031 271.945312 268.136719 270.441406 269.65625 C 268.941406 271.171875 267.398438 272.644531 265.816406 274.078125 C 264.230469 275.511719 262.609375 276.898438 260.953125 278.242188 C 259.292969 279.585938 257.597656 280.882812 255.867188 282.132812 C 254.136719 283.382812 252.371094 284.582031 250.578125 285.734375 C 248.78125 286.890625 246.953125 287.992188 245.097656 289.046875 C 243.238281 290.097656 241.355469 291.101562 239.441406 292.050781 C 237.53125 293 235.59375 293.894531 233.632812 294.738281 C 231.671875 295.582031 229.6875 296.371094 227.683594 297.105469 C 225.679688 297.839844 223.65625 298.519531 221.613281 299.140625 C 219.574219 299.765625 217.515625 300.332031 215.441406 300.839844 C 213.371094 301.351562 211.285156 301.804688 209.1875 302.199219 C 207.089844 302.597656 204.984375 302.933594 202.867188 303.214844 C 200.75 303.496094 198.628906 303.714844 196.5 303.878906 C 194.371094 304.042969 192.238281 304.148438 190.105469 304.195312 C 187.96875 304.242188 185.835938 304.230469 183.703125 304.160156 C 181.570312 304.089844 179.4375 303.960938 177.3125 303.773438 C 175.1875 303.585938 173.066406 303.339844 170.953125 303.035156 C 168.839844 302.730469 166.738281 302.371094 164.644531 301.949219 C 162.550781 301.53125 160.472656 301.054688 158.402344 300.519531 C 156.335938 299.988281 154.285156 299.398438 152.25 298.75 C 150.214844 298.105469 148.203125 297.402344 146.207031 296.648438 C 144.210938 295.890625 142.234375 295.078125 140.285156 294.214844 C 138.332031 293.347656 136.40625 292.429688 134.503906 291.460938 C 132.601562 290.488281 130.730469 289.46875 128.886719 288.394531 C 127.039062 287.320312 125.226562 286.195312 123.441406 285.023438 C 121.660156 283.847656 119.910156 282.628906 118.191406 281.359375 C 116.476562 280.089844 114.796875 278.773438 113.152344 277.410156 C 111.507812 276.050781 109.902344 274.644531 108.335938 273.195312 C 106.769531 271.746094 105.242188 270.253906 103.757812 268.71875 C 102.273438 267.183594 100.832031 265.613281 99.433594 264 C 98.035156 262.386719 96.679688 260.738281 95.371094 259.050781 C 94.0625 257.363281 92.804688 255.640625 91.589844 253.882812 C 90.375 252.128906 89.210938 250.339844 88.097656 248.519531 C 86.980469 246.699219 85.917969 244.851562 84.902344 242.972656 C 83.890625 241.09375 82.925781 239.1875 82.019531 237.257812 C 81.109375 235.324219 80.253906 233.371094 79.453125 231.390625 C 78.648438 229.414062 77.902344 227.414062 77.210938 225.394531 C 76.519531 223.375 75.882812 221.339844 75.300781 219.285156 C 74.722656 217.230469 74.199219 215.160156 73.730469 213.078125 C 73.265625 210.996094 72.855469 208.898438 72.503906 206.792969 C 72.152344 204.6875 71.859375 202.574219 71.621094 200.453125 C 71.386719 198.332031 71.207031 196.207031 71.089844 194.074219 C 70.972656 191.941406 70.910156 189.808594 70.910156 187.675781 C 70.90625 185.539062 70.964844 183.40625 71.078125 181.273438 C 71.195312 179.144531 71.367188 177.015625 71.601562 174.894531 C 71.832031 172.773438 72.121094 170.65625 72.46875 168.550781 C 72.816406 166.445312 73.222656 164.351562 73.6875 162.265625 C 74.148438 160.183594 74.671875 158.113281 75.246094 156.058594 C 75.824219 154.003906 76.457031 151.964844 77.144531 149.945312 C 77.832031 147.921875 78.578125 145.921875 79.375 143.941406 C 80.175781 141.960938 81.027344 140.007812 81.933594 138.074219 C 82.839844 136.140625 83.796875 134.234375 84.808594 132.351562 C 85.816406 130.472656 86.878906 128.621094 87.992188 126.800781 C 89.101562 124.976562 90.265625 123.1875 91.476562 121.429688 C 92.6875 119.671875 93.945312 117.945312 95.25 116.257812 C 96.554688 114.566406 97.90625 112.914062 99.300781 111.300781 C 100.695312 109.683594 102.136719 108.109375 103.617188 106.574219 C 105.101562 105.035156 106.625 103.542969 108.1875 102.089844 C 109.753906 100.636719 111.355469 99.230469 112.996094 97.863281 C 114.640625 96.5 116.316406 95.179688 118.03125 93.910156 C 119.746094 92.636719 121.492188 91.414062 123.273438 90.234375 C 125.054688 89.058594 126.867188 87.933594 128.710938 86.855469 C 130.554688 85.777344 132.425781 84.753906 134.324219 83.777344 C 136.222656 82.804688 138.148438 81.882812 140.097656 81.015625 C 142.050781 80.144531 144.023438 79.332031 146.015625 78.570312 C 148.011719 77.8125 150.027344 77.105469 152.058594 76.457031 C 154.09375 75.808594 156.140625 75.214844 158.207031 74.675781 C 160.273438 74.140625 162.355469 73.660156 164.445312 73.238281 C 166.539062 72.8125 168.640625 72.449219 170.753906 72.140625 C 172.867188 71.832031 174.984375 71.582031 177.113281 71.394531 C 179.238281 71.203125 181.367188 71.070312 183.5 70.996094 C 185.636719 70.921875 187.769531 70.90625 189.902344 70.949219 C 192.039062 70.992188 194.167969 71.09375 196.296875 71.25 C 198.425781 71.410156 200.550781 71.628906 202.667969 71.90625 C 204.78125 72.183594 206.890625 72.515625 208.988281 72.910156 C 211.085938 73.300781 213.171875 73.75 215.246094 74.257812 C 217.320312 74.765625 219.378906 75.328125 221.421875 75.949219 C 223.464844 76.566406 225.488281 77.242188 227.496094 77.972656 C 229.5 78.703125 231.484375 79.488281 233.449219 80.328125 C 235.410156 81.167969 237.347656 82.0625 239.261719 83.007812 C 241.175781 83.953125 243.0625 84.953125 244.921875 86.003906 C 246.78125 87.050781 248.609375 88.152344 250.40625 89.300781 C 252.207031 90.453125 253.972656 91.652344 255.703125 92.898438 C 257.4375 94.144531 259.132812 95.4375 260.792969 96.78125 C 262.457031 98.121094 264.078125 99.503906 265.664062 100.933594 C 267.25 102.363281 268.796875 103.835938 270.300781 105.347656 C 271.804688 106.863281 273.269531 108.417969 274.6875 110.011719 C 276.105469 111.605469 277.480469 113.238281 278.8125 114.910156 C 280.140625 116.578125 281.425781 118.285156 282.660156 120.023438 C 283.894531 121.765625 285.082031 123.539062 286.222656 125.34375 C 287.363281 127.148438 288.449219 128.984375 289.488281 130.851562 L 266.644531 143.542969 C 265.84375 142.09375 265 140.667969 264.117188 139.265625 C 263.234375 137.863281 262.3125 136.484375 261.351562 135.132812 C 260.394531 133.78125 259.398438 132.457031 258.367188 131.160156 C 257.335938 129.863281 256.273438 128.59375 255.171875 127.355469 C 254.070312 126.117188 252.9375 124.90625 251.769531 123.730469 C 250.601562 122.554688 249.402344 121.410156 248.171875 120.300781 C 246.941406 119.1875 245.683594 118.113281 244.394531 117.070312 C 243.105469 116.027344 241.789062 115.023438 240.445312 114.054688 C 239.097656 113.085938 237.730469 112.152344 236.332031 111.257812 C 234.9375 110.363281 233.519531 109.507812 232.078125 108.691406 C 230.632812 107.878906 229.171875 107.101562 227.683594 106.367188 C 226.199219 105.628906 224.695312 104.933594 223.171875 104.28125 C 221.648438 103.628906 220.109375 103.019531 218.550781 102.449219 C 216.996094 101.878906 215.425781 101.355469 213.839844 100.871094 C 212.253906 100.390625 210.65625 99.953125 209.046875 99.558594 C 207.4375 99.164062 205.816406 98.8125 204.1875 98.507812 C 202.558594 98.199219 200.921875 97.941406 199.277344 97.722656 C 197.636719 97.507812 195.988281 97.339844 194.335938 97.210938 C 192.683594 97.085938 191.027344 97.007812 189.371094 96.972656 C 187.714844 96.9375 186.058594 96.949219 184.402344 97.007812 C 182.742188 97.0625 181.089844 97.164062 179.441406 97.3125 C 177.789062 97.460938 176.144531 97.652344 174.503906 97.890625 C 172.863281 98.128906 171.230469 98.410156 169.605469 98.738281 C 167.980469 99.066406 166.367188 99.4375 164.761719 99.851562 C 163.15625 100.269531 161.566406 100.730469 159.988281 101.230469 C 158.40625 101.734375 156.84375 102.28125 155.292969 102.871094 C 153.746094 103.460938 152.214844 104.09375 150.699219 104.765625 C 149.183594 105.4375 147.691406 106.152344 146.214844 106.910156 C 144.738281 107.664062 143.285156 108.460938 141.855469 109.296875 C 140.421875 110.132812 139.015625 111.003906 137.632812 111.917969 C 136.25 112.832031 134.890625 113.78125 133.558594 114.769531 C 132.230469 115.753906 130.925781 116.777344 129.652344 117.835938 C 128.375 118.894531 127.128906 119.988281 125.914062 121.117188 C 124.699219 122.242188 123.515625 123.402344 122.367188 124.59375 C 121.214844 125.789062 120.097656 127.011719 119.011719 128.265625 C 117.929688 129.519531 116.878906 130.800781 115.863281 132.109375 C 114.851562 133.421875 113.875 134.761719 112.933594 136.125 C 111.992188 137.488281 111.089844 138.878906 110.226562 140.292969 C 109.363281 141.707031 108.539062 143.144531 107.753906 144.605469 C 106.96875 146.066406 106.222656 147.546875 105.519531 149.046875 C 104.816406 150.546875 104.15625 152.066406 103.535156 153.601562 C 102.914062 155.140625 102.335938 156.691406 101.800781 158.261719 C 101.265625 159.828125 100.773438 161.410156 100.324219 163.007812 C 99.878906 164.601562 99.472656 166.210938 99.113281 167.828125 C 98.753906 169.445312 98.4375 171.070312 98.167969 172.707031 C 97.898438 174.339844 97.671875 175.984375 97.492188 177.628906 C 97.308594 179.277344 97.175781 180.929688 97.085938 182.585938 C 96.996094 184.238281 96.949219 185.894531 96.953125 187.554688 C 96.953125 189.210938 97 190.867188 97.09375 192.519531 C 97.183594 194.175781 97.320312 195.828125 97.503906 197.472656 C 97.6875 199.121094 97.914062 200.761719 98.1875 202.398438 C 98.460938 204.03125 98.777344 205.660156 99.140625 207.277344 C 99.503906 208.894531 99.910156 210.5 100.359375 212.09375 C 100.808594 213.6875 101.304688 215.269531 101.839844 216.839844 C 102.378906 218.40625 102.957031 219.957031 103.582031 221.496094 C 104.203125 223.03125 104.867188 224.546875 105.574219 226.046875 C 106.277344 227.546875 107.023438 229.027344 107.8125 230.484375 C 108.597656 231.945312 109.425781 233.378906 110.292969 234.792969 C 111.15625 236.207031 112.0625 237.59375 113.003906 238.957031 C 113.945312 240.320312 114.925781 241.660156 115.941406 242.96875 C 116.957031 244.277344 118.007812 245.558594 119.09375 246.8125 C 120.179688 248.0625 121.296875 249.285156 122.449219 250.476562 C 123.605469 251.667969 124.789062 252.824219 126.003906 253.949219 C 127.222656 255.074219 128.46875 256.167969 129.746094 257.222656 C 131.019531 258.28125 132.324219 259.300781 133.660156 260.289062 C 134.992188 261.273438 136.351562 262.222656 137.734375 263.132812 C 139.121094 264.042969 140.527344 264.914062 141.960938 265.75 C 143.394531 266.582031 144.847656 267.375 146.324219 268.128906 C 147.800781 268.882812 149.296875 269.59375 150.8125 270.265625 C 152.328125 270.9375 153.859375 271.566406 155.410156 272.15625 C 156.957031 272.742188 158.523438 273.285156 160.101562 273.789062 C 161.683594 274.289062 163.273438 274.746094 164.878906 275.160156 C 166.484375 275.574219 168.101562 275.945312 169.726562 276.269531 C 171.351562 276.59375 172.984375 276.875 174.625 277.109375 C 176.265625 277.347656 177.910156 277.535156 179.5625 277.683594 C 181.210938 277.828125 182.867188 277.925781 184.523438 277.980469 C 186.179688 278.035156 187.835938 278.042969 189.492188 278.007812 C 191.148438 277.972656 192.804688 277.890625 194.457031 277.761719 C 196.109375 277.632812 197.757812 277.460938 199.402344 277.242188 C 201.042969 277.023438 202.679688 276.761719 204.308594 276.453125 C 205.9375 276.144531 207.554688 275.792969 209.164062 275.398438 C 210.773438 275 212.371094 274.558594 213.957031 274.074219 C 215.539062 273.589844 217.113281 273.0625 218.667969 272.492188 C 220.222656 271.921875 221.761719 271.308594 223.285156 270.652344 C 224.808594 269.996094 226.3125 269.300781 227.792969 268.5625 C 229.277344 267.824219 230.742188 267.046875 232.183594 266.230469 C 233.625 265.410156 235.042969 264.554688 236.4375 263.660156 C 237.832031 262.761719 239.199219 261.828125 240.542969 260.859375 C 241.886719 259.886719 243.203125 258.878906 244.488281 257.835938 C 245.777344 256.792969 247.035156 255.714844 248.261719 254.601562 C 249.492188 253.488281 250.6875 252.34375 251.855469 251.164062 C 253.019531 249.988281 254.152344 248.777344 255.25 247.539062 C 256.351562 246.296875 257.414062 245.027344 258.445312 243.726562 C 259.472656 242.429688 260.46875 241.101562 261.425781 239.75 C 262.378906 238.394531 263.300781 237.019531 264.179688 235.613281 C 265.0625 234.210938 265.902344 232.78125 266.707031 231.332031 Z M 289.585938 244.121094 " fill-opacity="1" fill-rule="evenodd"/></g></g></g><g clip-path="url(#clip-6)"><g clip-path="url(#clip-7)"><g clip-path="url(#clip-8)"><path fill="rgb(47.44873%, 0%, 0%)" d="M 140.050781 236.632812 C 139.132812 235.75 138.238281 234.835938 137.371094 233.902344 C 136.503906 232.964844 135.664062 232.003906 134.851562 231.023438 C 134.039062 230.039062 133.253906 229.035156 132.496094 228.007812 C 131.742188 226.980469 131.015625 225.929688 130.316406 224.863281 C 129.617188 223.796875 128.949219 222.707031 128.3125 221.601562 C 127.675781 220.496094 127.070312 219.375 126.496094 218.234375 C 125.921875 217.097656 125.378906 215.941406 124.871094 214.773438 C 124.359375 213.601562 123.882812 212.421875 123.441406 211.222656 C 122.996094 210.027344 122.585938 208.820312 122.210938 207.601562 C 121.835938 206.382812 121.496094 205.152344 121.1875 203.914062 C 120.878906 202.675781 120.609375 201.429688 120.371094 200.175781 C 120.132812 198.921875 119.933594 197.664062 119.765625 196.398438 C 119.597656 195.132812 119.46875 193.863281 119.375 192.59375 C 119.277344 191.320312 119.21875 190.046875 119.195312 188.769531 C 119.167969 187.496094 119.179688 186.21875 119.226562 184.945312 C 119.277344 183.667969 119.359375 182.398438 119.476562 181.125 C 119.597656 179.855469 119.75 178.589844 119.941406 177.328125 C 120.128906 176.066406 120.355469 174.8125 120.613281 173.5625 C 120.875 172.3125 121.167969 171.070312 121.496094 169.839844 C 121.828125 168.605469 122.191406 167.382812 122.589844 166.171875 C 122.984375 164.960938 123.417969 163.761719 123.882812 162.570312 C 124.347656 161.382812 124.84375 160.210938 125.375 159.050781 C 125.90625 157.890625 126.46875 156.746094 127.066406 155.617188 C 127.660156 154.488281 128.285156 153.375 128.941406 152.28125 C 129.601562 151.1875 130.289062 150.113281 131.003906 149.058594 C 131.722656 148.003906 132.46875 146.96875 133.242188 145.957031 C 134.019531 144.945312 134.820312 143.953125 135.652344 142.984375 C 136.484375 142.015625 137.339844 141.070312 138.222656 140.152344 C 139.109375 139.230469 140.015625 138.335938 140.949219 137.46875 C 141.882812 136.597656 142.84375 135.753906 143.824219 134.941406 C 144.804688 134.125 145.808594 133.335938 146.832031 132.578125 C 147.855469 131.816406 148.902344 131.085938 149.96875 130.386719 C 151.035156 129.683594 152.121094 129.015625 153.222656 128.375 C 154.328125 127.734375 155.449219 127.125 156.585938 126.546875 C 157.722656 125.96875 158.875 125.425781 160.042969 124.910156 C 161.210938 124.398438 162.394531 123.917969 163.589844 123.472656 C 164.785156 123.027344 165.992188 122.613281 167.210938 122.234375 C 168.425781 121.855469 169.65625 121.511719 170.894531 121.199219 C 172.128906 120.890625 173.375 120.613281 174.628906 120.375 C 175.882812 120.132812 177.140625 119.929688 178.40625 119.757812 C 179.667969 119.585938 180.9375 119.453125 182.210938 119.355469 C 183.480469 119.253906 184.753906 119.191406 186.03125 119.164062 C 187.304688 119.136719 188.582031 119.144531 189.855469 119.1875 C 191.132812 119.230469 192.40625 119.3125 193.675781 119.425781 C 194.945312 119.542969 196.210938 119.691406 197.476562 119.878906 C 198.738281 120.066406 199.992188 120.285156 201.242188 120.542969 C 202.492188 120.796875 203.734375 121.089844 204.96875 121.414062 C 206.203125 121.742188 207.425781 122.101562 208.636719 122.496094 C 209.851562 122.890625 211.054688 123.320312 212.242188 123.78125 C 213.433594 124.242188 214.605469 124.738281 215.769531 125.265625 C 216.929688 125.792969 218.078125 126.351562 219.207031 126.945312 C 220.335938 127.535156 221.449219 128.160156 222.546875 128.8125 C 223.640625 129.46875 224.71875 130.152344 225.773438 130.867188 C 226.832031 131.582031 227.867188 132.324219 228.882812 133.097656 C 229.898438 133.867188 230.890625 134.667969 231.863281 135.496094 C 232.832031 136.324219 233.777344 137.179688 234.703125 138.0625 C 235.625 138.941406 236.523438 139.847656 237.394531 140.78125 C 238.265625 141.710938 239.109375 142.667969 239.929688 143.644531 C 240.746094 144.625 241.539062 145.625 242.300781 146.648438 C 243.0625 147.671875 243.796875 148.714844 244.5 149.777344 C 245.203125 150.84375 245.878906 151.925781 246.519531 153.027344 C 247.164062 154.128906 247.777344 155.25 248.355469 156.382812 C 248.9375 157.519531 249.484375 158.671875 250 159.839844 C 250.519531 161.003906 251 162.1875 251.449219 163.378906 C 251.902344 164.574219 252.316406 165.777344 252.699219 166.996094 C 253.082031 168.214844 253.429688 169.441406 253.742188 170.675781 C 254.058594 171.914062 254.335938 173.160156 254.582031 174.410156 C 254.824219 175.664062 255.03125 176.921875 255.207031 178.183594 C 255.378906 179.449219 255.519531 180.71875 255.621094 181.988281 C 255.722656 183.261719 255.789062 184.535156 255.820312 185.808594 C 255.851562 187.085938 255.847656 188.359375 255.808594 189.636719 C 255.765625 190.910156 255.691406 192.183594 255.578125 193.453125 C 255.46875 194.726562 255.320312 195.992188 255.136719 197.253906 C 254.957031 198.519531 254.738281 199.773438 254.484375 201.023438 C 254.230469 202.277344 253.945312 203.519531 253.621094 204.753906 C 253.300781 205.988281 252.941406 207.210938 252.550781 208.425781 C 252.160156 209.640625 251.734375 210.84375 251.277344 212.035156 C 250.816406 213.222656 250.328125 214.402344 249.800781 215.5625 C 249.277344 216.726562 248.722656 217.875 248.132812 219.007812 C 247.542969 220.136719 246.925781 221.253906 246.273438 222.351562 C 245.621094 223.449219 244.941406 224.527344 244.230469 225.585938 C 243.515625 226.644531 242.777344 227.683594 242.007812 228.699219 C 241.238281 229.71875 240.441406 230.710938 239.613281 231.683594 C 238.789062 232.65625 237.9375 233.605469 237.058594 234.53125 C 236.179688 235.457031 235.277344 236.355469 234.347656 237.230469 C 233.417969 238.105469 232.464844 238.953125 231.488281 239.773438 C 230.511719 240.597656 229.511719 241.390625 228.492188 242.15625 C 227.472656 242.921875 226.429688 243.65625 225.367188 244.363281 C 224.304688 245.070312 223.226562 245.746094 222.125 246.390625 C 221.023438 247.039062 219.90625 247.652344 218.773438 248.238281 C 217.636719 248.820312 216.488281 249.371094 215.324219 249.890625 C 214.15625 250.410156 212.980469 250.898438 211.785156 251.351562 C 210.59375 251.804688 209.390625 252.222656 208.171875 252.609375 C 206.957031 252.996094 205.730469 253.347656 204.496094 253.664062 C 203.257812 253.980469 202.015625 254.261719 200.765625 254.511719 C 199.511719 254.757812 198.253906 254.96875 196.992188 255.148438 L 193.695312 231.761719 C 194.523438 231.644531 195.34375 231.503906 196.164062 231.339844 C 196.980469 231.179688 197.792969 230.992188 198.601562 230.785156 C 199.410156 230.578125 200.210938 230.347656 201.003906 230.09375 C 201.800781 229.839844 202.585938 229.566406 203.367188 229.265625 C 204.144531 228.96875 204.914062 228.652344 205.675781 228.3125 C 206.4375 227.972656 207.1875 227.609375 207.929688 227.226562 C 208.671875 226.84375 209.402344 226.441406 210.121094 226.019531 C 210.839844 225.59375 211.546875 225.152344 212.238281 224.691406 C 212.933594 224.226562 213.613281 223.746094 214.28125 223.242188 C 214.945312 222.742188 215.597656 222.222656 216.238281 221.6875 C 216.875 221.148438 217.496094 220.59375 218.101562 220.023438 C 218.710938 219.449219 219.300781 218.859375 219.875 218.253906 C 220.449219 217.648438 221.003906 217.027344 221.542969 216.390625 C 222.082031 215.757812 222.601562 215.105469 223.105469 214.4375 C 223.609375 213.773438 224.089844 213.09375 224.554688 212.402344 C 225.019531 211.707031 225.464844 211.003906 225.890625 210.285156 C 226.316406 209.566406 226.71875 208.839844 227.101562 208.097656 C 227.488281 207.359375 227.851562 206.609375 228.191406 205.847656 C 228.535156 205.085938 228.855469 204.316406 229.15625 203.539062 C 229.453125 202.761719 229.730469 201.972656 229.984375 201.179688 C 230.242188 200.386719 230.472656 199.585938 230.683594 198.777344 C 230.894531 197.972656 231.082031 197.160156 231.246094 196.339844 C 231.410156 195.523438 231.550781 194.703125 231.671875 193.875 C 231.789062 193.050781 231.882812 192.222656 231.957031 191.390625 C 232.027344 190.558594 232.078125 189.726562 232.101562 188.894531 C 232.128906 188.0625 232.132812 187.226562 232.109375 186.394531 C 232.089844 185.558594 232.042969 184.726562 231.976562 183.894531 C 231.910156 183.066406 231.820312 182.234375 231.703125 181.410156 C 231.589844 180.582031 231.453125 179.761719 231.292969 178.941406 C 231.132812 178.125 230.949219 177.3125 230.746094 176.503906 C 230.539062 175.695312 230.308594 174.890625 230.058594 174.097656 C 229.808594 173.300781 229.535156 172.511719 229.242188 171.734375 C 228.945312 170.953125 228.628906 170.179688 228.292969 169.417969 C 227.953125 168.65625 227.597656 167.902344 227.214844 167.160156 C 226.835938 166.417969 226.433594 165.6875 226.015625 164.96875 C 225.59375 164.25 225.152344 163.539062 224.691406 162.84375 C 224.230469 162.148438 223.75 161.46875 223.253906 160.800781 C 222.753906 160.132812 222.238281 159.476562 221.703125 158.835938 C 221.164062 158.199219 220.613281 157.574219 220.042969 156.964844 C 219.472656 156.359375 218.886719 155.765625 218.28125 155.191406 C 217.679688 154.613281 217.058594 154.054688 216.425781 153.515625 C 215.789062 152.972656 215.140625 152.453125 214.476562 151.945312 C 213.8125 151.441406 213.132812 150.957031 212.441406 150.488281 C 211.75 150.023438 211.046875 149.578125 210.332031 149.148438 C 209.613281 148.722656 208.886719 148.316406 208.148438 147.929688 C 207.410156 147.542969 206.660156 147.175781 205.898438 146.832031 C 205.140625 146.488281 204.371094 146.164062 203.59375 145.863281 C 202.816406 145.5625 202.03125 145.28125 201.238281 145.023438 C 200.445312 144.765625 199.644531 144.53125 198.839844 144.320312 C 198.03125 144.105469 197.21875 143.917969 196.402344 143.75 C 195.585938 143.582031 194.765625 143.4375 193.941406 143.316406 C 193.113281 143.195312 192.285156 143.097656 191.457031 143.023438 C 190.625 142.949219 189.792969 142.898438 188.960938 142.867188 C 188.125 142.839844 187.292969 142.835938 186.457031 142.855469 C 185.625 142.871094 184.792969 142.914062 183.960938 142.980469 C 183.128906 143.042969 182.300781 143.132812 181.472656 143.242188 C 180.648438 143.355469 179.824219 143.488281 179.003906 143.648438 C 178.1875 143.804688 177.371094 143.984375 176.5625 144.1875 C 175.753906 144.390625 174.953125 144.617188 174.15625 144.867188 C 173.359375 145.113281 172.570312 145.382812 171.789062 145.675781 C 171.007812 145.96875 170.234375 146.28125 169.472656 146.617188 C 168.707031 146.953125 167.957031 147.308594 167.210938 147.6875 C 166.46875 148.066406 165.734375 148.464844 165.015625 148.882812 C 164.292969 149.300781 163.582031 149.738281 162.886719 150.199219 C 162.191406 150.65625 161.507812 151.132812 160.835938 151.628906 C 160.167969 152.128906 159.511719 152.640625 158.871094 153.175781 C 158.230469 153.710938 157.605469 154.261719 156.992188 154.828125 C 156.382812 155.398438 155.789062 155.980469 155.210938 156.582031 C 154.632812 157.1875 154.074219 157.804688 153.53125 158.4375 C 152.988281 159.070312 152.464844 159.71875 151.957031 160.378906 C 151.449219 161.042969 150.960938 161.71875 150.492188 162.40625 C 150.023438 163.097656 149.574219 163.800781 149.144531 164.515625 C 148.714844 165.230469 148.308594 165.957031 147.917969 166.695312 C 147.53125 167.433594 147.160156 168.179688 146.816406 168.9375 C 146.46875 169.699219 146.144531 170.464844 145.839844 171.242188 C 145.535156 172.019531 145.253906 172.804688 144.992188 173.59375 C 144.734375 174.386719 144.496094 175.1875 144.28125 175.992188 C 144.066406 176.796875 143.871094 177.609375 143.703125 178.425781 C 143.53125 179.242188 143.386719 180.0625 143.261719 180.886719 C 143.136719 181.714844 143.039062 182.539062 142.960938 183.371094 C 142.882812 184.203125 142.828125 185.035156 142.796875 185.867188 C 142.765625 186.699219 142.757812 187.535156 142.773438 188.367188 C 142.792969 189.203125 142.832031 190.035156 142.894531 190.867188 C 142.957031 191.699219 143.039062 192.527344 143.148438 193.355469 C 143.257812 194.179688 143.390625 195.003906 143.546875 195.824219 C 143.699219 196.644531 143.878906 197.457031 144.078125 198.265625 C 144.28125 199.078125 144.503906 199.878906 144.75 200.675781 C 144.992188 201.472656 145.261719 202.265625 145.550781 203.046875 C 145.839844 203.828125 146.152344 204.601562 146.484375 205.367188 C 146.820312 206.128906 147.171875 206.886719 147.546875 207.628906 C 147.921875 208.375 148.320312 209.109375 148.734375 209.832031 C 149.152344 210.554688 149.589844 211.265625 150.046875 211.960938 C 150.5 212.660156 150.976562 213.34375 151.472656 214.015625 C 151.964844 214.6875 152.480469 215.347656 153.011719 215.988281 C 153.542969 216.632812 154.089844 217.257812 154.65625 217.871094 C 155.222656 218.484375 155.808594 219.078125 156.40625 219.65625 Z M 140.050781 236.632812 " fill-opacity="1" fill-rule="evenodd"/></g></g></g></svg>