<svg xmlns="http://www.w3.org/2000/svg" xmlns:xlink="http://www.w3.org/1999/xlink" viewBox="0 0 144.73 144.73"><defs><style>.cls-1{fill:none;}.cls-2{clip-path:url(#clip-path);}.cls-3{fill:#790000;fill-rule:evenodd;}</style><clipPath id="clip-path" transform="translate(-17.14 -17.15)"><rect class="cls-1" x="17.15" y="17.15" width="144.75" height="144.75" transform="translate(-21.21 28.15) rotate(-16)"/></clipPath></defs><g id="Layer_2" data-name="Layer 2"><g id="Layer_1-2" data-name="Layer 1"><g class="cls-2"><g class="cls-2"><path class="cls-3" d="M69.57,20c1.27-.36,2.54-.69,3.82-1s2.56-.55,3.85-.77,2.59-.41,3.89-.56,2.61-.27,3.92-.35,2.62-.13,3.93-.14,2.63,0,3.93.08,2.62.16,3.93.29,2.6.3,3.9.5,2.58.45,3.87.72,2.55.58,3.82.92,2.52.73,3.77,1.14,2.47.85,3.69,1.33,2.43,1,3.63,1.53,2.37,1.12,3.53,1.73,2.31,1.25,3.43,1.92,2.24,1.37,3.33,2.1S132,30.9,133,31.68s2.07,1.61,3.07,2.45,2,1.72,2.94,2.62,1.89,1.82,2.79,2.77,1.79,1.91,2.64,2.91,1.68,2,2.48,3,1.57,2.11,2.31,3.19,1.45,2.19,2.13,3.31,1.33,2.26,2,3.41,1.2,2.33,1.76,3.52,1.07,2.39,1.56,3.61S157.6,65,158,66.21s.81,2.49,1.16,3.75.68,2.54,1,3.82.54,2.56.75,3.86.4,2.59.54,3.89.26,2.61.33,3.92.12,2.62.12,3.93,0,2.62-.1,3.94-.17,2.61-.32,3.91-.31,2.61-.52,3.9-.46,2.58-.74,3.87-.59,2.55-.94,3.81-.74,2.52-1.15,3.76-.88,2.48-1.36,3.7-1,2.42-1.55,3.61-1.13,2.37-1.75,3.53-1.26,2.29-1.93,3.42-1.39,2.22-2.12,3.31-1.5,2.15-2.3,3.2-1.61,2.06-2.46,3.06-1.73,2-2.63,2.92-1.83,1.88-2.78,2.79-1.93,1.77-2.93,2.62-2,1.66-3.07,2.46-2.11,1.55-3.2,2.29-2.19,1.43-3.32,2.11-2.26,1.32-3.42,1.93-2.34,1.19-3.53,1.74-2.4,1.06-3.62,1.54-2.45.94-3.69,1.35-2.5.8-3.77,1.15-2.54.66-3.82.94-2.57.52-3.86.72-2.59.39-3.9.52-2.61.25-3.92.31-2.62.1-3.93.09-2.62,0-3.93-.12-2.62-.19-3.92-.33-2.6-.33-3.9-.55-2.57-.47-3.86-.76-2.55-.6-3.81-1-2.51-.75-3.75-1.18-2.47-.88-3.69-1.37-2.41-1-3.6-1.57-2.36-1.15-3.52-1.77-2.29-1.27-3.41-2-2.22-1.39-3.3-2.14-2.14-1.51-3.18-2.31-2.06-1.63-3.05-2.48-2-1.74-2.92-2.64-1.86-1.85-2.76-2.8S34.89,137,34.05,136s-1.66-2-2.45-3.08-1.54-2.12-2.27-3.21-1.43-2.2-2.1-3.33-1.3-2.27-1.91-3.44-1.18-2.34-1.72-3.53-1.05-2.41-1.53-3.63-.91-2.46-1.32-3.7-.79-2.5-1.12-3.77-.65-2.54-.92-3.82-.51-2.58-.71-3.87-.37-2.6-.5-3.9-.23-2.61-.29-3.93-.08-2.62-.07-3.93.06-2.62.15-3.93.2-2.61.35-3.91.34-2.61.57-3.9.49-2.57.78-3.85L30.83,76c-.24,1.06-.46,2.13-.65,3.2s-.34,2.16-.47,3.25-.22,2.17-.29,3.26-.1,2.18-.12,3.27,0,2.18.07,3.27.13,2.18.24,3.27.25,2.17.42,3.25.36,2.15.59,3.22.49,2.13.77,3.18.6,2.1.94,3.14.71,2.06,1.11,3.08.82,2,1.27,3,.93,2,1.44,2.94,1,1.92,1.59,2.86,1.14,1.86,1.75,2.77,1.24,1.79,1.89,2.67,1.34,1.73,2,2.56,1.43,1.65,2.17,2.45,1.52,1.57,2.31,2.33,1.6,1.49,2.42,2.2,1.68,1.4,2.55,2.06,1.75,1.3,2.65,1.92,1.82,1.21,2.75,1.78,1.88,1.11,2.84,1.62,1.94,1,2.93,1.47,2,.9,3,1.31,2,.78,3.07,1.14,2.08.67,3.13,1,2.11.56,3.17.8,2.14.45,3.22.63,2.16.33,3.24.45,2.17.21,3.26.27,2.18.1,3.28.1,2.18,0,3.27-.08,2.18-.14,3.27-.26,2.16-.26,3.24-.43,2.15-.38,3.22-.62,2.12-.49,3.18-.78,2.09-.61,3.13-.95,2.06-.73,3.07-1.13,2-.84,3-1.29,2-.94,2.94-1.46,1.91-1,2.85-1.6,1.86-1.15,2.76-1.77,1.79-1.24,2.66-1.91,1.72-1.34,2.55-2.05,1.65-1.43,2.44-2.18,1.56-1.52,2.31-2.32,1.48-1.6,2.19-2.43,1.39-1.69,2.05-2.56,1.29-1.76,1.91-2.66,1.2-1.82,1.76-2.76,1.1-1.89,1.61-2.85,1-2,1.45-2.94.88-2,1.29-3,.77-2,1.12-3.07.67-2.08,1-3.14.55-2.11.78-3.17.44-2.15.61-3.22.32-2.16.44-3.25.2-2.17.25-3.26.09-2.18.08-3.27,0-2.19-.1-3.28-.15-2.18-.27-3.26-.28-2.17-.46-3.25-.39-2.14-.62-3.21-.51-2.12-.81-3.17-.62-2.1-1-3.13-.73-2.06-1.14-3.07-.85-2-1.31-3-.95-2-1.47-2.93-1-1.91-1.62-2.84-1.16-1.85-1.78-2.75-1.26-1.79-1.92-2.65S136,51,135.27,50.21s-1.44-1.64-2.2-2.43-1.53-1.55-2.32-2.3S129.13,44,128.3,43.3s-1.69-1.37-2.57-2S124,40,123.06,39.38s-1.83-1.19-2.77-1.75-1.89-1.09-2.86-1.59-2-1-3-1.44-2-.87-3-1.27-2-.77-3.08-1.11-2.09-.65-3.14-.94-2.12-.54-3.18-.76-2.14-.43-3.22-.59-2.17-.31-3.25-.42-2.18-.19-3.27-.24-2.18-.07-3.27-.06-2.18,0-3.27.11-2.18.17-3.27.3-2.16.28-3.23.47-2.15.4-3.22.64-2.12.52-3.17.82Z" transform="translate(-17.14 -17.15)"/></g></g></g></g></svg>